<?xml version="1.0" encoding="UTF-8" standalone="no"?>
<svg
    width="1400"
    height="1400"
    version="1.1"
    xmlns="http://www.w3.org/2000/svg"
    xmlns:svg="http://www.w3.org/2000/svg">
    <g
        transform="matrix(34.4,0,0,34.4,115.0974,37.145771)"
        opacity="1">
        <g
            transform="scale(0.21645022)"
            opacity="1">
            <g
                transform="matrix(1.8141331,0,0,1.8141331,-1.2680789,-1.683792)"
                light-content="false"
                non-strokable="false"
                fill="#c27aff">
                <path
                    d="m 47,1.732 37.301,21.536 a 6,6 0 0 1 3,5.196 v 43.072 a 6,6 0 0 1 -3,5.196 L 47,98.268 a 6,6 0 0 1 -6,0 L 3.699,76.732 a 6,6 0 0 1 -3,-5.196 V 28.464 a 6,6 0 0 1 3,-5.196 L 41,1.732 a 6,6 0 0 1 6,0 z"
                />
            </g>
        </g>
    </g>
</svg>